<svg width="500" height="500" version="1.1" xmlns="http://www.w3.org/2000/svg" desc="Created with imagetracer.js version 1.2.6" ><path fill="rgb(0,0,0)" stroke="rgb(0,0,0)" stroke-width="1" opacity="0" d="M 0 0 L 40.5 0 L 41.5 1 L 42.5 0 L 500 0 L 500 500 L 233.5 500 L 231.5 500 L 178.5 500 L 177.5 499 L 176.5 500 L 0 500 L 0 0 Z M 239 150 Q 229 153 224 160 L 218 162 L 211 160 Q 201 158 197 162 Q 191 166 189 174 L 186 176 L 174 178 L 168 181 Q 160 186 160 198 Q 148 210 140 228 Q 135 239 133 254 L 133 256 L 131 263 L 131 288 L 134 302 L 139 312 L 148 319 L 160 322 L 177 320 L 183 318 L 189 318 L 206 314 L 219 313 L 220 312 L 222 314 L 221 331 L 219 334 L 217 345 L 218 349 L 220 350 Q 226 348 228 351 L 251 351 L 257 349 Q 258 343 255 340 Q 250 332 239 332 L 240 309 L 243 308 L 267 305 L 267 327 L 263 333 L 262 344 L 268 347 L 297 347 L 302 345 Q 303 338 300 336 L 292 329 L 283 328 Q 285 324 284 316 L 285 315 L 285 303 L 292 300 L 309 298 L 326 294 L 332 294 L 343 290 L 352 279 L 354 260 Q 362 259 368 254 L 373 248 L 375 246 L 387 243 L 391 240 L 391 227 L 388 219 L 385 215 L 376 215 L 374 210 L 368 205 L 362 207 L 361 211 L 362 216 L 362 227 L 361 228 L 362 232 L 362 236 L 360 239 L 352 242 L 340 215 Q 334 203 324 195 L 325 193 Q 326 184 323 180 Q 318 173 307 173 L 301 165 L 297 161 L 292 161 L 284 157 L 280 158 L 275 158 L 271 155 Q 263 154 261 157 L 255 157 Q 250 150 239 150 Z " /><path fill="rgb(42,45,50)" stroke="rgb(42,45,50)" stroke-width="1" opacity="0.9803921568627451" d="M 238.5 150 Q 250.2 149.8 254.5 157 L 260.5 157 Q 263.1 153.6 270.5 155 L 274.5 158 L 279.5 158 L 283.5 157 L 291.5 161 L 296.5 161 L 301 164.5 L 306.5 173 Q 318.2 172.8 323 179.5 Q 326.1 183.9 325 192.5 L 324 194.5 Q 333.6 202.9 340 214.5 L 351.5 242 L 360 239 L 362 235.5 L 362 231.5 L 361 227.5 L 362 226.5 L 362 215.5 L 361 210.5 L 362 207 L 367.5 205 L 374 209.5 L 376 215 L 384.5 215 L 388 218.5 L 391 226.5 L 391 239.5 L 386.5 243 L 374.5 246 L 373 247.5 L 367.5 254 Q 362.3 259 354 260 L 352 278.5 L 342.5 290 L 331.5 294 L 325.5 294 L 308.5 298 L 291.5 300 L 285 302.5 L 285 314.5 L 284 315.5 Q 284.9 323.8 283 328 L 291.5 329 L 300 335.5 Q 302.8 338.2 302 344.5 L 296.5 347 L 267.5 347 L 262 343.5 L 263 332.5 L 267 326.5 L 267 305 L 242.5 308 L 240 309 L 239 332 Q 250.2 331.9 255 339.5 Q 258 342.8 257 349 L 250.5 351 L 227.5 351 Q 225.7 348.3 219.5 350 L 218 348.5 L 217 344.5 L 219 333.5 L 221 330.5 L 222 313.5 L 219.5 312 L 218.5 313 L 205.5 314 L 188.5 318 L 182.5 318 L 176.5 320 L 159.5 322 L 147.5 319 L 139 311.5 L 134 301.5 L 131 287.5 L 131 262.5 L 135 241.5 L 140 227.5 Q 147.9 210.4 160 197.5 Q 160.3 185.8 167.5 181 L 173.5 178 L 185.5 176 L 189 173.5 Q 191.2 166.2 196.5 162 Q 200.8 158.3 210.5 160 L 217.5 162 L 223.5 160 Q 229.4 153.4 238.5 150 Z M 238 155 L 222 166 Q 213 167 209 164 Q 202 163 199 166 L 194 175 L 188 180 L 176 182 L 172 184 L 165 193 Q 164 201 167 206 L 167 212 L 164 218 L 157 222 L 155 227 Q 153 236 158 239 L 165 232 L 170 231 L 169 229 Q 169 218 175 214 L 174 212 L 174 201 L 179 190 Q 185 183 196 180 L 204 180 L 215 183 L 215 177 L 214 176 L 215 174 Q 220 168 229 167 Q 241 167 247 174 L 258 172 L 274 172 L 275 169 L 273 163 L 269 159 Q 262 158 260 162 L 255 162 L 245 155 L 238 155 Z M 279 162 L 279 169 L 287 165 Q 285 161 279 162 Z M 294 166 L 285 172 Q 282 171 283 174 L 301 178 L 306 181 L 307 182 L 299 170 Q 298 166 294 166 Z M 229 172 L 222 174 L 219 177 L 220 186 L 239 177 Q 242 178 241 176 L 238 173 L 229 172 Z M 268 176 L 267 177 L 255 177 L 243 180 L 225 189 L 215 197 L 198 215 L 184 241 L 177 264 L 177 270 L 173 287 L 173 293 L 168 306 L 162 311 L 152 310 L 145 303 Q 146 295 144 296 L 140 291 Q 139 282 143 280 L 139 271 L 141 263 L 145 260 L 143 254 L 145 246 Q 147 241 152 241 L 150 236 Q 149 225 153 221 L 156 219 Q 161 217 162 211 Q 163 203 161 204 Q 150 216 143 233 L 137 253 L 136 268 L 135 269 L 136 293 Q 138 303 143 310 Q 147 317 158 318 L 324 291 L 334 289 L 341 286 L 345 282 L 349 271 L 349 260 L 348 259 L 347 246 L 342 229 L 338 220 L 323 200 Q 312 188 296 181 L 282 177 L 269 177 L 268 176 Z M 312 178 Q 314 180 313 186 L 320 190 L 321 191 L 320 184 Q 318 179 312 178 Z M 195 185 L 187 189 Q 180 194 178 204 Q 177 209 180 210 L 193 205 L 196 201 L 199 190 L 203 186 L 195 185 Z M 209 188 L 207 189 L 203 193 L 200 203 L 197 207 L 198 208 L 200 205 L 217 190 Q 215 187 209 188 Z M 196 208 L 190 212 L 181 215 L 175 221 L 174 225 L 177 239 L 174 240 L 172 236 L 168 236 L 159 244 L 151 246 L 148 250 L 149 256 L 152 257 L 154 257 L 160 252 L 167 253 L 169 257 L 174 259 Q 178 253 178 243 L 182 234 Q 188 220 197 210 Q 198 207 196 208 Z M 365 210 L 367 218 Q 368 222 366 224 L 366 234 L 367 235 L 364 241 Q 360 246 352 247 L 353 255 L 363 252 L 373 241 L 375 242 L 374 237 L 371 232 L 372 230 L 369 226 Q 368 220 372 219 L 371 214 Q 370 209 365 210 Z M 381 219 L 376 221 L 374 225 L 383 224 L 384 221 L 381 219 Z M 385 227 L 376 230 L 378 233 Q 384 234 386 231 Q 387 226 385 227 Z M 385 236 L 381 237 L 380 239 Q 386 240 387 237 L 385 236 Z M 160 257 Q 158 263 150 261 L 144 269 L 145 274 L 150 280 L 146 282 L 145 285 L 146 292 L 152 295 L 151 294 L 153 293 Q 154 290 152 291 Q 149 290 150 287 L 153 285 L 154 285 Q 153 287 156 286 L 157 289 L 160 287 L 159 286 L 160 281 L 168 280 L 170 280 L 169 277 L 161 273 Q 158 274 159 272 L 158 272 L 154 270 L 155 268 L 153 268 Q 152 264 157 266 L 160 262 L 162 263 L 164 262 Q 166 263 164 265 L 166 265 L 166 266 L 163 265 Q 159 264 158 267 L 160 270 Q 165 272 163 267 Q 167 266 166 269 L 164 270 L 167 271 L 167 268 L 169 268 Q 170 263 168 264 Q 165 263 167 262 L 166 261 L 166 260 Q 165 256 160 257 Z M 171 268 L 170 272 L 167 271 L 169 275 L 171 275 L 171 268 Z M 157 289 Q 156 292 159 291 Q 160 288 157 289 Z M 158 292 L 156 294 Q 155 298 158 299 L 163 296 Q 163 292 158 292 Z M 163 297 L 161 300 L 164 300 L 163 297 Z M 275 303 L 272 304 L 272 322 L 271 323 L 271 329 L 275 330 L 279 329 L 280 312 L 281 311 L 281 303 L 275 303 Z M 234 310 Q 232 312 228 311 L 226 313 L 226 333 Q 226 334 233 333 L 234 332 L 235 314 L 236 313 Q 237 309 234 310 Z M 268 333 L 267 342 L 270 343 L 297 343 L 298 342 L 296 338 L 290 333 L 281 333 L 280 334 Q 272 335 268 333 Z M 224 337 L 222 339 L 222 346 L 232 346 L 233 347 L 247 347 L 252 346 L 251 342 L 245 337 L 235 337 L 234 338 L 224 337 Z " /><path fill="rgb(42,45,50)" stroke="rgb(42,45,50)" stroke-width="1" opacity="0.9803921568627451" d="M 291.5 207 Q 302.5 206.5 307 212.5 L 305.5 216 L 297.5 212 L 290.5 212 L 286 213 Q 285 209.2 287.5 208 L 291.5 207 Z " /><path fill="rgb(42,45,50)" stroke="rgb(42,45,50)" stroke-width="1" opacity="0.9803921568627451" d="M 249.5 212 Q 258 210 260 214.5 L 257.5 217 L 246.5 218 L 241.5 223 L 239 223 Q 238 216.6 243.5 215 L 249.5 212 Z " /><path fill="rgb(42,45,50)" stroke="rgb(42,45,50)" stroke-width="1" opacity="0.9803921568627451" d="M 293.5 220 L 299 221.5 L 296 222 L 295 225.5 L 296 228 Q 299.8 229 301 226.5 L 301.5 223 Q 305.1 227.2 304 235 Q 300.6 233.3 293.5 234 L 287 237 L 286 227.5 L 289.5 222 L 293.5 220 Z " /><path fill="rgb(42,45,50)" stroke="rgb(42,45,50)" stroke-width="1" opacity="0.9803921568627451" d="M 251.5 225 Q 256.3 224.3 258 226.5 L 254 228.5 Q 253.3 232.3 255.5 233 Q 259.3 233.8 260 231.5 L 260.5 229 Q 263.6 231.9 263 238.5 Q 261.8 241.3 260.5 239 L 251.5 239 L 246.5 241 L 245 239.5 L 245 231.5 L 249.5 226 L 251.5 225 Z " /><path fill="rgb(42,45,50)" stroke="rgb(42,45,50)" stroke-width="1" opacity="0.9803921568627451" d="M 294.5 247 Q 298.7 245.7 297 250.5 L 291.5 257 Q 285 262.5 273.5 263 L 262.5 261 L 255.5 257 L 251.5 259 L 250 255.5 L 254 253 L 255 248 L 259 249.5 Q 258 254 260.5 255 Q 267.4 259.6 280.5 258 Q 289.6 254.6 294.5 247 Z " /><path fill="rgb(42,45,50)" stroke="rgb(42,45,50)" stroke-width="1" opacity="0.9803921568627451" d="M 221.5 256 Q 230.5 254.5 232 260.5 L 233 268 Q 235.1 266.4 240.5 267 L 244 269.5 L 246 283.5 Q 243.8 284.8 245 289.5 L 240.5 295 Q 235.4 298.4 225.5 297 L 220.5 296 L 217.5 298 L 209.5 299 L 198.5 296 L 189 287.5 Q 184.8 283.2 184 275.5 L 188 274 Q 189.9 284.1 197.5 290 Q 203.1 294.4 213.5 294 L 222.5 290 Q 225.1 293.9 232.5 293 L 240 289.5 L 239 285.5 L 241 280.5 L 239 277.5 L 241 273.5 L 237.5 271 L 229.5 273 L 228 270.5 L 229 266.5 L 228 262.5 L 225.5 260 Q 220.9 258.6 223 264.5 L 224 268.5 L 221 275.5 L 220 283 Q 215.8 286.4 205.5 285 L 198 279.5 L 196 270 L 200 271.5 Q 200.8 278.6 206.5 281 L 214.5 281 L 216 279.5 L 217 273.5 L 219 270.5 L 219 258.5 L 221.5 256 Z " /><path fill="rgb(237,193,88)" stroke="rgb(237,193,88)" stroke-width="1" opacity="0.9921568627450981" d="M 238.5 155 L 243.5 155 L 253.5 162 L 260.5 162 L 267.5 159 L 273 163.5 L 274 169.5 L 273 169.5 Q 273.5 165.5 270.5 165 L 266.5 163 L 259.5 166 L 253.5 166 L 244.5 159 L 239.5 159 L 233 162 L 229.5 167 L 222.5 168 L 215.5 171 Q 211.5 167.5 202.5 169 L 198 172.5 L 194.5 180 L 182.5 186 L 178.5 186 L 173.5 188 L 170 191.5 Q 167.3 195.3 169 203.5 L 170.5 211 L 172 210.5 L 169 216.5 L 171 216.5 L 166.5 219 L 160.5 221 L 160.5 220 L 165 216.5 Q 168.5 212.5 167 203.5 L 166 202.5 L 166 190.5 L 170.5 185 Q 176.2 181.2 185.5 181 L 193 176.5 Q 195.2 169.2 200.5 165 L 206.5 164 L 218.5 167 L 226.5 164 L 238.5 155 Z " /><path fill="rgb(237,193,88)" stroke="rgb(237,193,88)" stroke-width="1" opacity="0.9921568627450981" d="M 294.5 166 L 298 168.5 L 306 180.5 L 304.5 180 L 283 172.5 L 294.5 166 Z " /><path fill="rgb(237,193,88)" stroke="rgb(237,193,88)" stroke-width="1" opacity="0.9921568627450981" d="M 257.5 177 L 278.5 177 L 294.5 181 Q 314.3 189.3 327 204.5 Q 345.4 224.1 348 259.5 L 347 259.5 L 346.5 258 L 343 270.5 L 337.5 277 L 329.5 282 L 312.5 284 L 307.5 286 L 234.5 298 L 234.5 297 Q 242 296.5 245 291.5 L 246 278.5 L 245 276.5 L 246 272.5 L 241.5 267 L 237.5 266 L 234 267 L 233 261.5 L 228.5 256 L 223.5 255 L 219 257.5 L 218 263.5 L 219 268.5 Q 215.2 272.8 216 280 L 207.5 281 L 203 277.5 L 198.5 269 L 191.5 268 L 188 270.5 L 187 274 Q 181.8 272.2 184 279.5 L 192.5 292 L 201.5 298 L 214.5 299 L 223.5 296 L 232 298.5 L 207.5 303 L 205.5 302 L 203 303 L 201.5 306 L 196 305 L 196.5 303 Q 197.6 305.8 201 305 Q 199.9 302.3 202.5 303 L 200.5 300 L 197.5 300 L 191.5 305 L 173.5 308 L 170 311.5 L 166.5 316 Q 162.7 318.7 154.5 317 Q 145.9 314.6 142 307.5 L 139 301.5 L 136 289.5 L 136 261.5 L 139 245.5 L 144 231.5 Q 150.1 215.6 160.5 204 L 162 209.5 L 152 221.5 L 146 241.5 L 147 242.5 L 144 245.5 L 143 255.5 L 139 266.5 L 139 272.5 L 141 276.5 L 141 278.5 L 139 287.5 L 144 301.5 L 149.5 309 Q 152.7 312.3 159.5 312 L 167 307.5 L 172 297.5 L 178 260.5 L 184 241.5 Q 190.5 225.5 200 212.5 L 213.5 198 Q 225 187.5 240.5 181 L 257.5 177 Z M 260 189 L 260 192 L 264 193 L 265 191 Q 264 188 260 189 Z M 290 192 L 289 193 L 287 193 L 287 197 L 294 197 L 294 195 L 290 192 Z M 234 198 L 233 201 L 233 202 L 238 202 L 239 200 Q 238 197 234 198 Z M 290 207 L 286 208 L 285 211 L 287 213 Q 291 214 293 212 Q 300 212 304 216 L 307 216 L 307 211 L 300 207 L 290 207 Z M 253 211 L 243 215 L 238 222 L 242 224 L 244 220 L 251 217 L 259 217 L 260 214 Q 258 210 253 211 Z M 213 220 L 210 223 Q 211 225 208 224 L 208 229 Q 212 230 213 227 Q 212 224 215 225 Q 217 224 215 223 L 217 223 L 217 222 Q 216 219 213 220 Z M 292 220 L 286 226 L 285 230 L 286 236 L 288 237 L 296 235 L 299 234 L 304 235 Q 305 227 302 223 L 301 227 L 298 228 L 295 225 L 300 222 Q 298 218 292 220 Z M 251 225 L 249 226 L 244 234 Q 243 240 247 242 L 255 239 L 263 240 Q 264 232 261 228 L 260 231 L 257 233 L 254 230 L 259 227 Q 257 224 251 225 Z M 329 238 L 327 239 L 325 242 L 330 244 Q 335 246 333 241 L 329 238 Z M 294 247 L 292 250 Q 287 256 278 258 L 271 258 L 262 255 L 259 252 L 259 250 Q 260 246 256 248 L 254 252 L 249 256 L 250 259 Q 254 260 256 257 L 262 261 L 270 263 L 279 263 L 290 259 L 297 252 L 298 249 Q 297 246 294 247 Z M 199 250 Q 196 251 197 255 Q 198 257 202 256 L 203 252 Q 202 249 199 250 Z M 337 252 Q 336 255 339 254 Q 340 251 337 252 Z M 332 263 L 327 269 Q 325 274 332 272 Q 336 271 335 265 L 332 263 Z M 284 267 L 280 269 Q 273 271 272 268 Q 268 267 269 270 L 273 272 Q 282 274 284 269 L 284 267 Z M 307 273 L 303 278 L 306 279 L 309 276 L 308 275 Q 309 272 307 273 Z M 184 297 L 184 301 L 189 300 L 184 297 Z " /><path fill="rgb(237,193,88)" stroke="rgb(237,193,88)" stroke-width="1" opacity="0.9921568627450981" d="M 315.5 181 L 319 182.5 L 318.5 185 L 315.5 181 Z " /><path fill="rgb(237,193,88)" stroke="rgb(237,193,88)" stroke-width="1" opacity="0.9921568627450981" d="M 206.5 190 L 208 190.5 L 206 191 L 206.5 194 L 208 193.5 L 207.5 195 L 209 195.5 L 205.5 197 L 204 196.5 L 204 194.5 L 206.5 190 Z " /><path fill="rgb(237,193,88)" stroke="rgb(237,193,88)" stroke-width="1" opacity="0.9921568627450981" d="M 180.5 216 L 182.5 219 L 180.5 216 Z " /><path fill="rgb(237,193,88)" stroke="rgb(237,193,88)" stroke-width="1" opacity="0.9921568627450981" d="M 185.5 216 L 184.5 218 L 185.5 216 Z " /><path fill="rgb(237,193,88)" stroke="rgb(237,193,88)" stroke-width="1" opacity="0.9921568627450981" d="M 178.5 217 L 181 220.5 Q 179.5 223.5 178 220.5 L 179 218.5 L 178.5 217 Z " /><path fill="rgb(237,193,88)" stroke="rgb(237,193,88)" stroke-width="1" opacity="0.9921568627450981" d="M 168.5 219 L 167.5 221 L 168.5 219 Z " /><path fill="rgb(237,193,88)" stroke="rgb(237,193,88)" stroke-width="1" opacity="0.9921568627450981" d="M 181.5 223 Q 186.9 221.1 186 224.5 L 184 225.5 L 184.5 224 Q 180.5 224.8 181.5 223 Z " /><path fill="rgb(237,193,88)" stroke="rgb(237,193,88)" stroke-width="1" opacity="0.9921568627450981" d="M 183.5 229 L 182.5 231 L 183.5 229 Z " /><path fill="rgb(237,193,88)" stroke="rgb(237,193,88)" stroke-width="1" opacity="0.9921568627450981" d="M 168.5 236 L 172 237.5 L 173.5 240 Q 176.8 238.9 176 241.5 L 178 245.5 L 174 258 L 171.5 258 L 165.5 252 L 158.5 252 L 156 253 L 154.5 256 Q 149 257 148 253.5 Q 147.3 247.3 151.5 246 Q 158.4 245.4 162 241.5 Q 161.3 239.3 163.5 240 L 168.5 236 Z " /><path fill="rgb(237,193,88)" stroke="rgb(237,193,88)" stroke-width="1" opacity="0.9921568627450981" d="M 147.5 240 L 148.5 242 L 147.5 240 Z " /><path fill="rgb(237,193,88)" stroke="rgb(237,193,88)" stroke-width="1" opacity="0.9921568627450981" d="M 347.5 270 L 348 272.5 L 347 272.5 L 347.5 270 Z " /><path fill="rgb(237,193,88)" stroke="rgb(237,193,88)" stroke-width="1" opacity="0.9921568627450981" d="M 345.5 272 L 347 275.5 L 346 275.5 L 345.5 272 Z " /><path fill="rgb(237,193,88)" stroke="rgb(237,193,88)" stroke-width="1" opacity="0.9921568627450981" d="M 342.5 280 L 343.5 282 L 341 281.5 L 342.5 280 Z " /><path fill="rgb(237,193,88)" stroke="rgb(237,193,88)" stroke-width="1" opacity="0.9921568627450981" d="M 337.5 285 L 336.5 287 L 337.5 285 Z " /><path fill="rgb(237,193,88)" stroke="rgb(237,193,88)" stroke-width="1" opacity="0.9921568627450981" d="M 317.5 290 L 320 290.5 L 317.5 291 L 317.5 290 Z " /><path fill="rgb(237,193,88)" stroke="rgb(237,193,88)" stroke-width="1" opacity="0.9921568627450981" d="M 252.5 301 L 256 301.5 L 252.5 302 L 252.5 301 Z " /><path fill="rgb(237,193,88)" stroke="rgb(237,193,88)" stroke-width="1" opacity="0.9921568627450981" d="M 227.5 305 L 230 305.5 L 227.5 306 L 227.5 305 Z " /><path fill="rgb(237,193,88)" stroke="rgb(237,193,88)" stroke-width="1" opacity="0.9921568627450981" d="M 203.5 309 L 206 309.5 L 203.5 310 L 203.5 309 Z " /><path fill="rgb(237,193,88)" stroke="rgb(237,193,88)" stroke-width="1" opacity="0.9921568627450981" d="M 197.5 310 L 201 310.5 L 197.5 311 L 197.5 310 Z " /><path fill="rgb(195,137,68)" stroke="rgb(195,137,68)" stroke-width="1" opacity="0.996078431372549" d="M 233.5 157 L 230.5 161 L 233.5 157 Z " /><path fill="rgb(195,137,68)" stroke="rgb(195,137,68)" stroke-width="1" opacity="0.996078431372549" d="M 248.5 157 L 250.5 160 L 248.5 157 Z " /><path fill="rgb(195,137,68)" stroke="rgb(195,137,68)" stroke-width="1" opacity="0.996078431372549" d="M 239.5 159 L 244.5 159 L 253.5 166 L 259.5 166 L 266.5 163 L 273 167.5 L 274 172 L 257.5 172 L 246.5 174 Q 241.1 167.4 230 166.5 L 233 162 L 239.5 159 Z " /><path fill="rgb(195,137,68)" stroke="rgb(195,137,68)" stroke-width="1" opacity="0.996078431372549" d="M 270.5 160 L 272.5 163 L 270.5 160 Z " /><path fill="rgb(195,137,68)" stroke="rgb(195,137,68)" stroke-width="1" opacity="0.996078431372549" d="M 279 162 Q 285.3 160.5 287 164.5 L 279 169 L 279 162 Z " /><path fill="rgb(195,137,68)" stroke="rgb(195,137,68)" stroke-width="1" opacity="0.996078431372549" d="M 198.5 166 L 197.5 168 L 198.5 166 Z " /><path fill="rgb(195,137,68)" stroke="rgb(195,137,68)" stroke-width="1" opacity="0.996078431372549" d="M 216.5 166 L 219 166.5 L 216.5 167 L 216.5 166 Z " /><path fill="rgb(195,137,68)" stroke="rgb(195,137,68)" stroke-width="1" opacity="0.996078431372549" d="M 202.5 169 Q 212.4 167.6 217 171.5 L 214 175.5 L 215 176.5 L 215 183 L 203.5 180 L 195.5 180 L 193.5 181 L 193.5 180 L 196 178.5 Q 196.6 172.6 200.5 170 L 202.5 169 Z " /><path fill="rgb(195,137,68)" stroke="rgb(195,137,68)" stroke-width="1" opacity="0.996078431372549" d="M 228.5 172 L 237.5 173 L 241 175.5 Q 241.8 178.1 238.5 177 L 220 186 L 219 176.5 L 221.5 174 L 228.5 172 Z " /><path fill="rgb(195,137,68)" stroke="rgb(195,137,68)" stroke-width="1" opacity="0.996078431372549" d="M 192.5 176 L 191.5 178 L 192.5 176 Z " /><path fill="rgb(195,137,68)" stroke="rgb(195,137,68)" stroke-width="1" opacity="0.996078431372549" d="M 254.5 177 L 257 177.5 L 254.5 178 L 254.5 177 Z " /><path fill="rgb(195,137,68)" stroke="rgb(195,137,68)" stroke-width="1" opacity="0.996078431372549" d="M 279.5 177 L 282 177.5 L 279.5 178 L 279.5 177 Z " /><path fill="rgb(195,137,68)" stroke="rgb(195,137,68)" stroke-width="1" opacity="0.996078431372549" d="M 311.5 178 L 317 180.5 L 318.5 183 Q 321.1 182.2 320 185.5 L 321 190.5 L 319.5 190 L 313 185.5 L 314 181.5 L 312 181 L 311.5 178 Z " /><path fill="rgb(195,137,68)" stroke="rgb(195,137,68)" stroke-width="1" opacity="0.996078431372549" d="M 184.5 184 L 183.5 186 L 184.5 184 Z " /><path fill="rgb(195,137,68)" stroke="rgb(195,137,68)" stroke-width="1" opacity="0.996078431372549" d="M 194.5 185 L 203 185.5 L 199 189.5 L 196 200.5 L 192.5 205 L 179.5 210 Q 176.8 208.8 178 203.5 Q 179.8 193.8 186.5 189 L 194.5 185 Z " /><path fill="rgb(195,137,68)" stroke="rgb(195,137,68)" stroke-width="1" opacity="0.996078431372549" d="M 178.5 186 L 182 186.5 Q 177 190.5 175 197.5 L 174 208.5 L 173 209.5 L 175 213.5 L 172 215.5 Q 174.5 217 171 218.5 Q 168.3 221.8 169 228.5 L 170 231 L 164.5 232 L 157.5 239 Q 153.1 235.9 155 226.5 L 157 222 Q 164.8 221.6 169 216.5 L 171 211.5 L 169 203.5 L 169 193.5 L 173.5 188 L 178.5 186 Z " /><path fill="rgb(195,137,68)" stroke="rgb(195,137,68)" stroke-width="1" opacity="0.996078431372549" d="M 208.5 188 Q 214.6 186.9 217 189.5 L 209.5 196 L 206.5 194 L 204.5 197 L 206.5 196 L 207 197.5 Q 200.1 202.5 197 210 Q 194 208.8 195 212.5 Q 188.1 219.3 185 229 L 183 229.5 L 183 231.5 L 177.5 243 L 176 239.5 L 177 237.5 L 174 228.5 L 174 224.5 L 175 220.5 L 177.5 218 Q 179.8 218.8 179 216.5 L 197 208 Q 196 205 199 206 L 199 203.5 L 203 192.5 L 206.5 189 L 208.5 188 Z M 206 191 L 204 195 L 206 194 L 206 191 Z M 182 223 Q 180 225 185 224 L 186 225 Q 187 221 182 223 Z " /><path fill="rgb(195,137,68)" stroke="rgb(195,137,68)" stroke-width="1" opacity="0.996078431372549" d="M 224.5 189 L 223.5 191 L 224.5 189 Z " /><path fill="rgb(195,137,68)" stroke="rgb(195,137,68)" stroke-width="1" opacity="0.996078431372549" d="M 260 189 Q 263.8 188 265 190.5 L 263.5 193 L 260 191.5 L 260 189 Z " /><path fill="rgb(195,137,68)" stroke="rgb(195,137,68)" stroke-width="1" opacity="0.996078431372549" d="M 165.5 192 L 166 199.5 L 165 199.5 L 165.5 192 Z " /><path fill="rgb(195,137,68)" stroke="rgb(195,137,68)" stroke-width="1" opacity="0.996078431372549" d="M 289.5 192 L 294 194.5 L 294 197 L 287 197 L 287 193 L 288.5 193 L 289.5 192 Z " /><path fill="rgb(195,137,68)" stroke="rgb(195,137,68)" stroke-width="1" opacity="0.996078431372549" d="M 314.5 192 L 316.5 195 L 314.5 192 Z " /><path fill="rgb(195,137,68)" stroke="rgb(195,137,68)" stroke-width="1" opacity="0.996078431372549" d="M 320.5 197 L 322.5 200 L 320.5 197 Z " /><path fill="rgb(195,137,68)" stroke="rgb(195,137,68)" stroke-width="1" opacity="0.996078431372549" d="M 234 198 Q 237.8 197 239 199.5 L 238 202 L 233 202 L 233 200.5 L 234 198 Z " /><path fill="rgb(195,137,68)" stroke="rgb(195,137,68)" stroke-width="1" opacity="0.996078431372549" d="M 327.5 205 L 329.5 208 L 327.5 205 Z " /><path fill="rgb(195,137,68)" stroke="rgb(195,137,68)" stroke-width="1" opacity="0.996078431372549" d="M 203.5 208 L 202.5 210 L 203.5 208 Z " /><path fill="rgb(195,137,68)" stroke="rgb(195,137,68)" stroke-width="1" opacity="0.996078431372549" d="M 365 210 Q 369.7 209.3 371 213.5 L 372 218.5 Q 368.4 219.9 369 225.5 L 372 229.5 L 371 231.5 L 374 236.5 L 375 242 L 372.5 241 L 362.5 252 L 353 255 L 352 247 Q 359.6 245.9 364 240.5 L 367 234.5 L 366 233.5 L 366 223.5 Q 368.2 222.3 367 217.5 L 365 210 Z " /><path fill="rgb(195,137,68)" stroke="rgb(195,137,68)" stroke-width="1" opacity="0.996078431372549" d="M 252.5 211 L 256 211.5 L 252.5 212 L 252.5 211 Z " /><path fill="rgb(195,137,68)" stroke="rgb(195,137,68)" stroke-width="1" opacity="0.996078431372549" d="M 160.5 212 L 161 213.5 L 155 218.5 L 160.5 212 Z " /><path fill="rgb(195,137,68)" stroke="rgb(195,137,68)" stroke-width="1" opacity="0.996078431372549" d="M 258.5 212 L 259.5 214 L 258.5 212 Z " /><path fill="rgb(195,137,68)" stroke="rgb(195,137,68)" stroke-width="1" opacity="0.996078431372549" d="M 199.5 213 L 198.5 215 L 199.5 213 Z " /><path fill="rgb(195,137,68)" stroke="rgb(195,137,68)" stroke-width="1" opacity="0.996078431372549" d="M 242.5 215 L 239.5 219 L 242.5 215 Z " /><path fill="rgb(195,137,68)" stroke="rgb(195,137,68)" stroke-width="1" opacity="0.996078431372549" d="M 259.5 215 L 258.5 217 L 259.5 215 Z " /><path fill="rgb(195,137,68)" stroke="rgb(195,137,68)" stroke-width="1" opacity="0.996078431372549" d="M 162.5 218 L 161.5 220 L 162.5 218 Z " /><path fill="rgb(195,137,68)" stroke="rgb(195,137,68)" stroke-width="1" opacity="0.996078431372549" d="M 196.5 218 L 195.5 220 L 196.5 218 Z " /><path fill="rgb(195,137,68)" stroke="rgb(195,137,68)" stroke-width="1" opacity="0.996078431372549" d="M 246.5 218 L 248 218.5 L 245.5 220 L 246.5 218 Z " /><path fill="rgb(195,137,68)" stroke="rgb(195,137,68)" stroke-width="1" opacity="0.996078431372549" d="M 336.5 218 L 337.5 220 L 336.5 218 Z " /><path fill="rgb(195,137,68)" stroke="rgb(195,137,68)" stroke-width="1" opacity="0.996078431372549" d="M 380.5 219 L 384 220.5 L 382.5 224 L 374 225 L 375.5 221 L 380.5 219 Z " /><path fill="rgb(195,137,68)" stroke="rgb(195,137,68)" stroke-width="1" opacity="0.996078431372549" d="M 212.5 220 Q 216.3 219.3 217 221.5 L 214.5 225 Q 212.3 224.3 213 226.5 Q 211.8 229.8 208 229 L 208 224 Q 210.7 225.1 210 222.5 L 212.5 220 Z " /><path fill="rgb(195,137,68)" stroke="rgb(195,137,68)" stroke-width="1" opacity="0.996078431372549" d="M 291.5 220 L 293 220.5 L 290.5 222 L 291.5 220 Z " /><path fill="rgb(195,137,68)" stroke="rgb(195,137,68)" stroke-width="1" opacity="0.996078431372549" d="M 297.5 220 L 301 222.5 L 298.5 221 L 297.5 220 Z " /><path fill="rgb(195,137,68)" stroke="rgb(195,137,68)" stroke-width="1" opacity="0.996078431372549" d="M 243.5 221 L 241.5 224 L 240 223.5 L 243.5 221 Z " /><path fill="rgb(195,137,68)" stroke="rgb(195,137,68)" stroke-width="1" opacity="0.996078431372549" d="M 248.5 226 L 247.5 228 L 248.5 226 Z " /><path fill="rgb(195,137,68)" stroke="rgb(195,137,68)" stroke-width="1" opacity="0.996078431372549" d="M 258.5 226 L 260.5 229 L 258.5 226 Z " /><path fill="rgb(195,137,68)" stroke="rgb(195,137,68)" stroke-width="1" opacity="0.996078431372549" d="M 255.5 227 L 254.5 229 L 255.5 227 Z " /><path fill="rgb(195,137,68)" stroke="rgb(195,137,68)" stroke-width="1" opacity="0.996078431372549" d="M 384.5 227 Q 387.5 226.1 386 230.5 Q 383.7 233.7 377.5 233 L 376 230 L 384.5 227 Z " /><path fill="rgb(195,137,68)" stroke="rgb(195,137,68)" stroke-width="1" opacity="0.996078431372549" d="M 149.5 229 Q 149.3 236.3 152 240.5 L 150 240.5 L 149.5 242 L 148 241.5 L 144.5 247 L 144 245.5 L 146 241.5 L 149.5 229 Z " /><path fill="rgb(195,137,68)" stroke="rgb(195,137,68)" stroke-width="1" opacity="0.996078431372549" d="M 285.5 229 L 286 231.5 L 285 231.5 L 285.5 229 Z " /><path fill="rgb(195,137,68)" stroke="rgb(195,137,68)" stroke-width="1" opacity="0.996078431372549" d="M 254.5 231 L 255.5 233 L 254.5 231 Z " /><path fill="rgb(195,137,68)" stroke="rgb(195,137,68)" stroke-width="1" opacity="0.996078431372549" d="M 259.5 231 L 258.5 233 L 259.5 231 Z " /><path fill="rgb(195,137,68)" stroke="rgb(195,137,68)" stroke-width="1" opacity="0.996078431372549" d="M 244.5 233 L 245 237.5 L 244 237.5 L 244.5 233 Z " /><path fill="rgb(195,137,68)" stroke="rgb(195,137,68)" stroke-width="1" opacity="0.996078431372549" d="M 293.5 234 L 296 234.5 L 293.5 235 L 293.5 234 Z " /><path fill="rgb(195,137,68)" stroke="rgb(195,137,68)" stroke-width="1" opacity="0.996078431372549" d="M 384.5 236 L 387 236.5 Q 385.8 240.3 379.5 239 L 380.5 237 L 384.5 236 Z " /><path fill="rgb(195,137,68)" stroke="rgb(195,137,68)" stroke-width="1" opacity="0.996078431372549" d="M 165.5 237 L 163.5 240 L 165.5 237 Z " /><path fill="rgb(195,137,68)" stroke="rgb(195,137,68)" stroke-width="1" opacity="0.996078431372549" d="M 328.5 238 L 333 240.5 Q 334.8 245.8 329.5 244 L 325 241.5 L 326.5 239 L 328.5 238 Z " /><path fill="rgb(195,137,68)" stroke="rgb(195,137,68)" stroke-width="1" opacity="0.996078431372549" d="M 251.5 239 L 254 239.5 L 251.5 240 L 251.5 239 Z " /><path fill="rgb(195,137,68)" stroke="rgb(195,137,68)" stroke-width="1" opacity="0.996078431372549" d="M 258.5 239 L 261 239.5 L 258.5 240 L 258.5 239 Z " /><path fill="rgb(195,137,68)" stroke="rgb(195,137,68)" stroke-width="1" opacity="0.996078431372549" d="M 245.5 240 L 248 241.5 L 246.5 242 L 245.5 240 Z " /><path fill="rgb(195,137,68)" stroke="rgb(195,137,68)" stroke-width="1" opacity="0.996078431372549" d="M 161.5 241 L 160.5 243 L 161.5 241 Z " /><path fill="rgb(195,137,68)" stroke="rgb(195,137,68)" stroke-width="1" opacity="0.996078431372549" d="M 346.5 245 L 347 247.5 L 346 247.5 L 346.5 245 Z " /><path fill="rgb(195,137,68)" stroke="rgb(195,137,68)" stroke-width="1" opacity="0.996078431372549" d="M 150.5 246 L 149.5 248 L 150.5 246 Z " /><path fill="rgb(195,137,68)" stroke="rgb(195,137,68)" stroke-width="1" opacity="0.996078431372549" d="M 293.5 247 L 292.5 249 L 293.5 247 Z " /><path fill="rgb(195,137,68)" stroke="rgb(195,137,68)" stroke-width="1" opacity="0.996078431372549" d="M 198.5 250 Q 202.3 249.3 203 251.5 L 202 256 Q 198.2 257 197 254.5 Q 196.3 250.8 198.5 250 Z " /><path fill="rgb(195,137,68)" stroke="rgb(195,137,68)" stroke-width="1" opacity="0.996078431372549" d="M 347.5 251 L 348 254.5 L 347 254.5 L 347.5 251 Z " /><path fill="rgb(195,137,68)" stroke="rgb(195,137,68)" stroke-width="1" opacity="0.996078431372549" d="M 337 252 Q 340 251 339 254 Q 336 255 337 252 Z " /><path fill="rgb(195,137,68)" stroke="rgb(195,137,68)" stroke-width="1" opacity="0.996078431372549" d="M 259.5 253 L 260.5 255 L 259.5 253 Z " /><path fill="rgb(195,137,68)" stroke="rgb(195,137,68)" stroke-width="1" opacity="0.996078431372549" d="M 287.5 253 L 286.5 255 L 287.5 253 Z " /><path fill="rgb(195,137,68)" stroke="rgb(195,137,68)" stroke-width="1" opacity="0.996078431372549" d="M 143.5 254 L 145 260 L 141.5 262 L 141 260.5 L 143.5 254 Z " /><path fill="rgb(195,137,68)" stroke="rgb(195,137,68)" stroke-width="1" opacity="0.996078431372549" d="M 250.5 254 L 250 255.5 L 249.5 257 L 249 255.5 L 250.5 254 Z " /><path fill="rgb(195,137,68)" stroke="rgb(195,137,68)" stroke-width="1" opacity="0.996078431372549" d="M 223.5 255 L 226 255.5 L 223.5 256 L 223.5 255 Z " /><path fill="rgb(195,137,68)" stroke="rgb(195,137,68)" stroke-width="1" opacity="0.996078431372549" d="M 151.5 256 L 154 256.5 L 151.5 257 L 151.5 256 Z " /><path fill="rgb(195,137,68)" stroke="rgb(195,137,68)" stroke-width="1" opacity="0.996078431372549" d="M 169.5 256 L 170.5 258 L 169.5 256 Z " /><path fill="rgb(195,137,68)" stroke="rgb(195,137,68)" stroke-width="1" opacity="0.996078431372549" d="M 174.5 256 L 175 257.5 L 172.5 259 L 172.5 258 Q 175 258.7 174.5 256 Z " /><path fill="rgb(195,137,68)" stroke="rgb(195,137,68)" stroke-width="1" opacity="0.996078431372549" d="M 220.5 256 L 219.5 258 L 220.5 256 Z " /><path fill="rgb(195,137,68)" stroke="rgb(195,137,68)" stroke-width="1" opacity="0.996078431372549" d="M 228.5 256 L 230.5 259 L 228.5 256 Z " /><path fill="rgb(195,137,68)" stroke="rgb(195,137,68)" stroke-width="1" opacity="0.996078431372549" d="M 159.5 257 Q 165 256 166 259.5 L 165.5 261 L 168 262.5 L 167.5 264 Q 170.5 263.1 169 267.5 L 167 267.5 Q 165.5 271.9 168.5 271 L 170 271.5 Q 169.3 267.8 171.5 267 L 171 268.5 Q 172.5 276.1 169 275 L 169 273 Q 166.3 274.1 167 271.5 L 164 269.5 L 166 269 Q 167.1 265.7 163 267 Q 164.8 271.5 159.5 270 L 158 269.5 L 159 273 L 169 276.5 L 170 279.5 L 167.5 280 L 160 281 L 159 285.5 L 159.5 287 L 157 288.5 L 159 289 Q 160 292 157 291 L 156 286 Q 153.3 287.1 154 284.5 L 152.5 285 L 150 286.5 L 150.5 290 L 152 289.5 L 151.5 291 Q 153.8 290.3 153 292.5 L 154 294.5 L 153 294.5 Q 153.8 292.3 151.5 293 L 151.5 295 L 146 291.5 L 145 284.5 L 146 282 L 150 279.5 L 145 273.5 L 144 268.5 L 149.5 261 Q 158 262.5 159.5 257 Z M 160 262 L 157 266 Q 152 264 153 268 L 155 268 L 154 270 L 157 271 L 160 265 L 164 266 L 166 266 L 165 265 L 164 262 L 162 263 L 160 262 Z " /><path fill="rgb(195,137,68)" stroke="rgb(195,137,68)" stroke-width="1" opacity="0.996078431372549" d="M 278.5 257 L 281 257.5 L 278.5 258 L 278.5 257 Z " /><path fill="rgb(195,137,68)" stroke="rgb(195,137,68)" stroke-width="1" opacity="0.996078431372549" d="M 290.5 257 L 289.5 259 L 290.5 257 Z " /><path fill="rgb(195,137,68)" stroke="rgb(195,137,68)" stroke-width="1" opacity="0.996078431372549" d="M 136.5 258 L 137 260.5 L 136 260.5 L 136.5 258 Z " /><path fill="rgb(195,137,68)" stroke="rgb(195,137,68)" stroke-width="1" opacity="0.996078431372549" d="M 258.5 258 L 259.5 260 L 258.5 258 Z " /><path fill="rgb(195,137,68)" stroke="rgb(195,137,68)" stroke-width="1" opacity="0.996078431372549" d="M 346.5 258 L 347.5 260 L 349 259.5 L 348.5 271 L 347 270.5 L 348 275.5 Q 345.8 282.3 340.5 286 Q 335.1 289.6 326.5 290 L 324 289 Q 325.3 292.3 320.5 291 L 317.5 290 L 317.5 292 L 312 291 Q 313.3 294.3 308.5 293 L 306 292 Q 307.3 295.3 302.5 294 L 300.5 293 L 300.5 295 L 284.5 297 L 283 296.5 Q 283.9 299.9 278.5 298 L 256.5 302 L 252.5 301 L 252.5 303 L 245.5 303 L 230.5 306 L 227.5 305 L 227.5 307 L 223.5 306 L 221.5 308 L 206.5 310 L 203.5 309 L 203.5 311 L 197.5 310 L 197.5 312 L 188.5 313 L 186.5 312 L 186.5 314 L 181 313 Q 182.4 317 175.5 315 L 165.5 317 L 165.5 316 L 170 312.5 L 173.5 308 L 191.5 305 L 197.5 300 L 200.5 300 L 204.5 303 L 206.5 302 L 208.5 302 L 214.5 302 L 232 298.5 L 227 297.5 L 233.5 297 L 237.5 298 L 237.5 297 L 236 296.5 L 237.5 296 L 241.5 297 L 242.5 296 L 249.5 296 L 272.5 291 L 278.5 291 L 284.5 289 L 307.5 286 L 312.5 284 L 329.5 282 L 339 275.5 L 343 270.5 L 346.5 258 Z M 197 303 Q 195 306 198 305 L 197 303 Z M 201 303 Q 202 306 199 305 L 199 306 Q 202 307 203 305 Q 204 302 201 303 Z " /><path fill="rgb(195,137,68)" stroke="rgb(195,137,68)" stroke-width="1" opacity="0.996078431372549" d="M 218.5 259 L 219 263.5 L 218 263.5 L 218.5 259 Z " /><path fill="rgb(195,137,68)" stroke="rgb(195,137,68)" stroke-width="1" opacity="0.996078431372549" d="M 223 260 Q 226.8 259.3 228 262.5 L 229 269.5 L 228 271.5 Q 228.8 273.8 232.5 273 L 238.5 271 L 241 274.5 L 239 278.5 L 241 282.5 L 239 285.5 L 240 289.5 L 236.5 292 L 227.5 293 L 222.5 290 Q 217.7 294.7 207.5 294 L 200.5 292 L 195 287.5 Q 189.3 281.7 187 272.5 L 189.5 269 L 194.5 268 L 200 270.5 L 198.5 270 Q 193.9 268.6 196 274.5 L 200.5 282 Q 204.6 286.9 215.5 285 L 220 283 L 224 265.5 L 223 260 Z " /><path fill="rgb(195,137,68)" stroke="rgb(195,137,68)" stroke-width="1" opacity="0.996078431372549" d="M 269.5 262 L 273 262.5 L 269.5 263 L 269.5 262 Z " /><path fill="rgb(195,137,68)" stroke="rgb(195,137,68)" stroke-width="1" opacity="0.996078431372549" d="M 276.5 262 L 279 262.5 L 276.5 263 L 276.5 262 Z " /><path fill="rgb(195,137,68)" stroke="rgb(195,137,68)" stroke-width="1" opacity="0.996078431372549" d="M 171.5 263 L 170.5 265 L 171.5 263 Z " /><path fill="rgb(195,137,68)" stroke="rgb(195,137,68)" stroke-width="1" opacity="0.996078431372549" d="M 177.5 263 L 178 265.5 L 177 265.5 L 177.5 263 Z " /><path fill="rgb(195,137,68)" stroke="rgb(195,137,68)" stroke-width="1" opacity="0.996078431372549" d="M 331.5 263 L 335 264.5 Q 335.7 270.7 331.5 272 Q 325.2 274.2 327 268.5 L 331.5 263 Z " /><path fill="rgb(195,137,68)" stroke="rgb(195,137,68)" stroke-width="1" opacity="0.996078431372549" d="M 233.5 265 L 235 267.5 L 233 268 L 233.5 265 Z " /><path fill="rgb(195,137,68)" stroke="rgb(195,137,68)" stroke-width="1" opacity="0.996078431372549" d="M 237.5 266 L 240 266.5 L 237.5 267 L 237.5 266 Z " /><path fill="rgb(195,137,68)" stroke="rgb(195,137,68)" stroke-width="1" opacity="0.996078431372549" d="M 283.5 267 L 284 268.5 Q 281.5 273.5 272.5 272 L 269 269.5 Q 268.2 266.9 271.5 268 Q 273.3 270.8 279.5 269 L 283.5 267 Z " /><path fill="rgb(195,137,68)" stroke="rgb(195,137,68)" stroke-width="1" opacity="0.996078431372549" d="M 135.5 268 L 136 283.5 L 135 283.5 L 135.5 268 Z " /><path fill="rgb(195,137,68)" stroke="rgb(195,137,68)" stroke-width="1" opacity="0.996078431372549" d="M 245.5 272 L 246 275.5 L 245 275.5 L 245.5 272 Z " /><path fill="rgb(195,137,68)" stroke="rgb(195,137,68)" stroke-width="1" opacity="0.996078431372549" d="M 306.5 273 Q 308.8 272.3 308 274.5 L 309 275.5 L 305.5 279 L 303 277.5 L 306.5 273 Z " /><path fill="rgb(195,137,68)" stroke="rgb(195,137,68)" stroke-width="1" opacity="0.996078431372549" d="M 201.5 275 L 202.5 277 L 201.5 275 Z " /><path fill="rgb(195,137,68)" stroke="rgb(195,137,68)" stroke-width="1" opacity="0.996078431372549" d="M 216.5 275 L 217 277.5 L 216 277.5 L 216.5 275 Z " /><path fill="rgb(195,137,68)" stroke="rgb(195,137,68)" stroke-width="1" opacity="0.996078431372549" d="M 140.5 277 L 143 278.5 L 141.5 281 L 140.5 277 Z " /><path fill="rgb(195,137,68)" stroke="rgb(195,137,68)" stroke-width="1" opacity="0.996078431372549" d="M 139.5 285 L 140 287.5 L 139 287.5 L 139.5 285 Z " /><path fill="rgb(195,137,68)" stroke="rgb(195,137,68)" stroke-width="1" opacity="0.996078431372549" d="M 173.5 286 L 174 288.5 L 173 288.5 L 173.5 286 Z " /><path fill="rgb(195,137,68)" stroke="rgb(195,137,68)" stroke-width="1" opacity="0.996078431372549" d="M 136.5 290 L 137 292.5 L 136 292.5 L 136.5 290 Z " /><path fill="rgb(195,137,68)" stroke="rgb(195,137,68)" stroke-width="1" opacity="0.996078431372549" d="M 191.5 290 L 192.5 292 L 191.5 290 Z " /><path fill="rgb(195,137,68)" stroke="rgb(195,137,68)" stroke-width="1" opacity="0.996078431372549" d="M 244.5 290 L 245 291.5 L 241 294.5 L 244.5 290 Z " /><path fill="rgb(195,137,68)" stroke="rgb(195,137,68)" stroke-width="1" opacity="0.996078431372549" d="M 157.5 292 L 159.5 292 L 164.5 297 L 166 296.5 L 165.5 299 L 164 298.5 L 165 300.5 L 162.5 302 L 162.5 301 L 164 300.5 L 161 299.5 L 162 297.5 L 160.5 297 L 157.5 299 Q 155 298 156 293.5 L 157.5 292 Z " /><path fill="rgb(195,137,68)" stroke="rgb(195,137,68)" stroke-width="1" opacity="0.996078431372549" d="M 196.5 294 L 197.5 296 L 196.5 294 Z " /><path fill="rgb(195,137,68)" stroke="rgb(195,137,68)" stroke-width="1" opacity="0.996078431372549" d="M 142.5 295 L 145 296 L 144.5 302 L 142.5 295 Z " /><path fill="rgb(195,137,68)" stroke="rgb(195,137,68)" stroke-width="1" opacity="0.996078431372549" d="M 184 297 L 189 299.5 L 184 301 L 184 297 Z " /><path fill="rgb(195,137,68)" stroke="rgb(195,137,68)" stroke-width="1" opacity="0.996078431372549" d="M 206.5 298 L 209 298.5 L 206.5 299 L 206.5 298 Z " /><path fill="rgb(195,137,68)" stroke="rgb(195,137,68)" stroke-width="1" opacity="0.996078431372549" d="M 212.5 298 L 215 298.5 L 212.5 299 L 212.5 298 Z " /><path fill="rgb(195,137,68)" stroke="rgb(195,137,68)" stroke-width="1" opacity="0.996078431372549" d="M 274.5 303 L 281 303 L 281 310.5 L 280 311.5 L 279 329 L 274.5 330 L 271 329 L 271 322.5 L 272 321.5 L 272 304 L 274.5 303 Z " /><path fill="rgb(195,137,68)" stroke="rgb(195,137,68)" stroke-width="1" opacity="0.996078431372549" d="M 154.5 304 L 156.5 305 L 158 304.5 L 155.5 306 L 154.5 304 Z " /><path fill="rgb(195,137,68)" stroke="rgb(195,137,68)" stroke-width="1" opacity="0.996078431372549" d="M 146.5 305 L 149.5 309 L 146.5 305 Z " /><path fill="rgb(195,137,68)" stroke="rgb(195,137,68)" stroke-width="1" opacity="0.996078431372549" d="M 166.5 307 L 164.5 310 L 166.5 307 Z " /><path fill="rgb(195,137,68)" stroke="rgb(195,137,68)" stroke-width="1" opacity="0.996078431372549" d="M 143.5 309 L 147.5 314 L 143.5 309 Z " /><path fill="rgb(195,137,68)" stroke="rgb(195,137,68)" stroke-width="1" opacity="0.996078431372549" d="M 233.5 310 Q 237.3 308.8 236 312.5 L 235 313.5 L 234 331.5 L 232.5 333 Q 226.3 333.8 226 332.5 L 226 312.5 L 227.5 311 Q 232.2 312.3 233.5 310 Z " /><path fill="rgb(195,137,68)" stroke="rgb(195,137,68)" stroke-width="1" opacity="0.996078431372549" d="M 156.5 311 L 160 311.5 L 156.5 312 L 156.5 311 Z " /><path fill="rgb(195,137,68)" stroke="rgb(195,137,68)" stroke-width="1" opacity="0.996078431372549" d="M 157.5 317 L 162 317.5 L 157.5 318 L 157.5 317 Z " /><path fill="rgb(195,137,68)" stroke="rgb(195,137,68)" stroke-width="1" opacity="0.996078431372549" d="M 268 333 Q 271.8 334.8 279.5 334 L 280.5 333 L 289.5 333 L 296 337.5 L 298 341.5 L 296.5 343 L 269.5 343 L 267 342 L 268 333 Z " /><path fill="rgb(195,137,68)" stroke="rgb(195,137,68)" stroke-width="1" opacity="0.996078431372549" d="M 223.5 337 L 233.5 338 L 234.5 337 L 244.5 337 L 251 341.5 L 252 346 L 246.5 347 L 232.5 347 L 231.5 346 L 222 346 L 222 338.5 L 223.5 337 Z " /></svg>